<?xml version="1.0" encoding="utf-8"?>
<!-- Generator: Adobe Illustrator 15.0.0, SVG Export Plug-In . SVG Version: 6.00 Build 0)  -->
<!DOCTYPE svg PUBLIC "-//W3C//DTD SVG 1.1//EN" "http://www.w3.org/Graphics/SVG/1.1/DTD/svg11.dtd">
<svg version="1.1" id="Capa_1" xmlns="http://www.w3.org/2000/svg" xmlns:xlink="http://www.w3.org/1999/xlink" x="0px" y="0px"
	 width="180px" height="26px" viewBox="0 0 180 26" enable-background="new 0 0 180 26" xml:space="preserve">
<g>
	<g>
		<g>
			<path fill="#CC1009" d="M29.121,18.268V6.425h3.863c1.234,0,2.203,0.267,2.902,0.801s1.049,1.336,1.049,2.403
				c0,0.526-0.168,0.996-0.504,1.411s-0.779,0.724-1.326,0.924c0.717,0.151,1.279,0.501,1.689,1.049s0.613,1.185,0.613,1.911
				c0,1.085-0.352,1.912-1.055,2.484c-0.701,0.572-1.654,0.859-2.859,0.859H29.121z M30.723,11.459h2.594
				c0.598,0,1.082-0.163,1.457-0.492c0.373-0.327,0.561-0.784,0.561-1.37c0-0.64-0.201-1.118-0.607-1.436
				c-0.402-0.317-0.984-0.476-1.742-0.476h-2.262V11.459z M30.723,12.72v4.286h2.771c0.729,0,1.295-0.18,1.701-0.538
				c0.406-0.359,0.609-0.869,0.609-1.527c0-0.691-0.17-1.235-0.506-1.629c-0.34-0.395-0.861-0.592-1.568-0.592H30.723z"/>
			<path fill="#CC1009" d="M45.053,16.966c-0.275,0.472-0.631,0.834-1.066,1.09c-0.432,0.255-0.934,0.382-1.502,0.382
				c-0.961,0-1.709-0.306-2.246-0.919s-0.807-1.567-0.807-2.862v-5.19h1.604v5.206c0,0.938,0.139,1.583,0.416,1.937
				c0.275,0.352,0.707,0.528,1.291,0.528c0.57,0,1.041-0.116,1.412-0.347s0.652-0.557,0.844-0.979V9.466H46.6v8.802H45.16
				L45.053,16.966z M43.793,6.237h1.871l0.016,0.049l-2.195,2.115h-1.197L43.793,6.237z"/>
			<path fill="#CC1009" d="M54.049,15.925c0-0.353-0.135-0.644-0.402-0.871c-0.27-0.228-0.777-0.426-1.525-0.594
				c-1.068-0.232-1.871-0.547-2.41-0.945c-0.541-0.398-0.811-0.941-0.811-1.629c0-0.715,0.303-1.323,0.91-1.826
				c0.607-0.504,1.4-0.756,2.377-0.756c1.023,0,1.838,0.264,2.443,0.789c0.604,0.525,0.893,1.166,0.865,1.919l-0.016,0.05h-1.529
				c0-0.386-0.16-0.731-0.484-1.037c-0.322-0.307-0.75-0.46-1.279-0.46c-0.57,0-0.994,0.125-1.27,0.374
				c-0.277,0.25-0.414,0.551-0.414,0.902c0,0.348,0.121,0.621,0.365,0.822c0.244,0.2,0.738,0.379,1.488,0.537
				c1.113,0.238,1.938,0.563,2.48,0.972s0.814,0.958,0.814,1.647c0,0.78-0.316,1.412-0.947,1.895
				c-0.633,0.482-1.459,0.724-2.479,0.724c-1.121,0-2.008-0.284-2.65-0.854c-0.645-0.57-0.951-1.233-0.92-1.993l0.016-0.049h1.529
				c0.027,0.566,0.238,0.98,0.635,1.242s0.861,0.393,1.391,0.393c0.57,0,1.018-0.115,1.34-0.346
				C53.887,16.601,54.049,16.298,54.049,15.925z"/>
			<path fill="#CC1009" d="M57.279,14.029c0-1.415,0.301-2.557,0.906-3.424c0.605-0.868,1.451-1.302,2.541-1.302
				c0.537,0,1.008,0.102,1.414,0.305c0.408,0.204,0.752,0.501,1.033,0.892l0.236-1.034h1.221V21.65h-1.602v-4.213
				c-0.283,0.33-0.615,0.58-1,0.748s-0.826,0.252-1.318,0.252c-1.074,0-1.914-0.389-2.521-1.167c-0.609-0.778-0.91-1.802-0.91-3.07
				V14.029z M58.881,14.195c0,0.889,0.184,1.607,0.547,2.157c0.369,0.55,0.93,0.824,1.689,0.824c0.439,0,0.814-0.098,1.125-0.292
				c0.313-0.195,0.574-0.469,0.787-0.821v-4.435c-0.213-0.331-0.475-0.591-0.787-0.78c-0.311-0.189-0.68-0.284-1.109-0.284
				c-0.764,0-1.332,0.323-1.699,0.971c-0.369,0.647-0.553,1.478-0.553,2.49V14.195z"/>
			<path fill="#CC1009" d="M72.699,16.966c-0.277,0.472-0.633,0.834-1.066,1.09c-0.432,0.255-0.934,0.382-1.504,0.382
				c-0.961,0-1.707-0.306-2.244-0.919s-0.807-1.567-0.807-2.862v-5.19h1.604v5.206c0,0.938,0.139,1.583,0.414,1.937
				c0.277,0.352,0.709,0.528,1.293,0.528c0.568,0,1.041-0.116,1.412-0.347s0.652-0.557,0.842-0.979V9.466h1.602v8.802h-1.439
				L72.699,16.966z"/>
			<path fill="#CC1009" d="M80.23,18.438c-1.225,0-2.199-0.408-2.924-1.225c-0.725-0.815-1.086-1.874-1.086-3.176V13.68
				c0-1.253,0.373-2.295,1.117-3.127c0.746-0.833,1.629-1.249,2.648-1.249c1.188,0,2.084,0.357,2.693,1.073
				c0.605,0.716,0.91,1.671,0.91,2.863v1h-5.709l-0.025,0.041c0.016,0.844,0.23,1.538,0.643,2.081s0.99,0.814,1.732,0.814
				c0.543,0,1.018-0.077,1.428-0.231c0.41-0.155,0.764-0.367,1.061-0.639l0.627,1.043c-0.314,0.311-0.729,0.57-1.244,0.776
				C81.586,18.334,80.963,18.438,80.23,18.438z M79.986,10.564c-0.537,0-0.994,0.226-1.373,0.677
				c-0.381,0.451-0.613,1.018-0.701,1.698l0.016,0.04h4.061v-0.21c0-0.627-0.17-1.151-0.506-1.573
				C81.148,10.775,80.648,10.564,79.986,10.564z"/>
			<path fill="#CC1009" d="M85.021,14.029c0-1.415,0.303-2.557,0.906-3.424c0.604-0.868,1.451-1.302,2.543-1.302
				c0.514,0,0.971,0.095,1.369,0.284c0.398,0.19,0.738,0.467,1.021,0.83v-4.84h1.604v12.689h-1.311l-0.188-1.083
				c-0.287,0.412-0.641,0.725-1.057,0.937c-0.418,0.211-0.904,0.316-1.457,0.316c-1.074,0-1.912-0.389-2.521-1.167
				c-0.607-0.778-0.91-1.802-0.91-3.07V14.029z M86.623,14.2c0,0.889,0.182,1.602,0.547,2.135c0.363,0.534,0.926,0.802,1.689,0.802
				c0.479,0,0.879-0.109,1.203-0.325c0.328-0.217,0.594-0.521,0.799-0.911v-4.107c-0.205-0.363-0.473-0.651-0.803-0.866
				c-0.328-0.215-0.721-0.321-1.182-0.321c-0.771,0-1.338,0.316-1.703,0.951c-0.367,0.635-0.551,1.459-0.551,2.473V14.2z"/>
			<path fill="#CC1009" d="M100.264,18.268c-0.055-0.266-0.098-0.501-0.125-0.704c-0.031-0.203-0.049-0.407-0.055-0.614
				c-0.299,0.423-0.688,0.777-1.166,1.062c-0.48,0.284-0.998,0.427-1.551,0.427c-0.916,0-1.615-0.234-2.094-0.703
				c-0.48-0.469-0.719-1.116-0.719-1.94c0-0.84,0.34-1.497,1.02-1.972c0.682-0.475,1.605-0.712,2.77-0.712h1.74v-0.87
				c0-0.516-0.156-0.924-0.471-1.225c-0.316-0.301-0.76-0.451-1.334-0.451c-0.516,0-0.934,0.131-1.258,0.395
				c-0.322,0.264-0.482,0.578-0.482,0.947H95.01l-0.018-0.049c-0.031-0.64,0.27-1.225,0.906-1.757
				c0.639-0.531,1.461-0.797,2.471-0.797c0.996,0,1.799,0.254,2.406,0.761s0.912,1.237,0.912,2.192v4.237
				c0,0.314,0.016,0.618,0.049,0.91c0.031,0.294,0.09,0.581,0.178,0.863H100.264z M97.604,17.087c0.58,0,1.104-0.148,1.57-0.445
				c0.467-0.298,0.77-0.639,0.91-1.022v-1.427h-1.797c-0.645,0-1.162,0.161-1.549,0.486c-0.389,0.324-0.582,0.706-0.582,1.144
				c0,0.389,0.121,0.697,0.365,0.925C96.766,16.974,97.127,17.087,97.604,17.087z"/>
			<path fill="#CC1009" d="M113.561,18.268c-0.053-0.266-0.096-0.501-0.125-0.704s-0.047-0.407-0.053-0.614
				c-0.299,0.423-0.686,0.777-1.168,1.062c-0.479,0.284-0.996,0.427-1.549,0.427c-0.916,0-1.613-0.234-2.096-0.703
				c-0.479-0.469-0.719-1.116-0.719-1.94c0-0.84,0.342-1.497,1.021-1.972s1.604-0.712,2.77-0.712h1.74v-0.87
				c0-0.516-0.156-0.924-0.471-1.225c-0.316-0.301-0.76-0.451-1.336-0.451c-0.514,0-0.934,0.131-1.256,0.395
				s-0.482,0.578-0.482,0.947h-1.531l-0.016-0.049c-0.033-0.64,0.27-1.225,0.908-1.757c0.637-0.531,1.459-0.797,2.469-0.797
				c0.996,0,1.799,0.254,2.406,0.761s0.912,1.237,0.912,2.192v4.237c0,0.314,0.016,0.618,0.047,0.91
				c0.033,0.294,0.092,0.581,0.18,0.863H113.561z M110.902,17.087c0.58,0,1.104-0.148,1.57-0.445c0.465-0.298,0.77-0.639,0.91-1.022
				v-1.427h-1.797c-0.646,0-1.162,0.161-1.551,0.486c-0.389,0.324-0.58,0.706-0.58,1.144c0,0.389,0.121,0.697,0.365,0.925
				C110.064,16.974,110.424,17.087,110.902,17.087z"/>
			<path fill="#CC1009" d="M120.125,15.672l0.139,0.618h0.049l0.154-0.618l2.025-6.206h1.635l-3.238,8.802h-1.211L116.4,9.466h1.643
				L120.125,15.672z"/>
			<path fill="#CC1009" d="M130.854,18.268c-0.055-0.266-0.096-0.501-0.127-0.704c-0.029-0.203-0.047-0.407-0.053-0.614
				c-0.299,0.423-0.688,0.777-1.168,1.062c-0.479,0.284-0.994,0.427-1.549,0.427c-0.916,0-1.613-0.234-2.094-0.703
				c-0.479-0.469-0.719-1.116-0.719-1.94c0-0.84,0.34-1.497,1.021-1.972c0.68-0.475,1.604-0.712,2.768-0.712h1.74v-0.87
				c0-0.516-0.156-0.924-0.471-1.225s-0.76-0.451-1.334-0.451c-0.516,0-0.934,0.131-1.258,0.395
				c-0.322,0.264-0.484,0.578-0.484,0.947H125.6l-0.016-0.049c-0.033-0.64,0.27-1.225,0.906-1.757
				c0.637-0.531,1.461-0.797,2.469-0.797c0.998,0,1.799,0.254,2.406,0.761c0.609,0.507,0.91,1.237,0.91,2.192v4.237
				c0,0.314,0.018,0.618,0.051,0.91c0.033,0.294,0.092,0.581,0.178,0.863H130.854z M128.193,17.087c0.58,0,1.104-0.148,1.568-0.445
				c0.467-0.298,0.771-0.639,0.912-1.022v-1.427h-1.797c-0.645,0-1.162,0.161-1.551,0.486c-0.387,0.324-0.58,0.706-0.58,1.144
				c0,0.389,0.123,0.697,0.365,0.925C127.355,16.974,127.717,17.087,128.193,17.087z"/>
			<path fill="#CC1009" d="M136.035,9.466l0.113,1.31c0.293-0.466,0.66-0.828,1.102-1.085c0.443-0.258,0.945-0.387,1.508-0.387
				c0.949,0,1.686,0.277,2.205,0.834c0.52,0.556,0.781,1.414,0.781,2.574v5.556h-1.602v-5.523c0-0.775-0.154-1.326-0.461-1.651
				c-0.305-0.325-0.773-0.487-1.402-0.487c-0.461,0-0.869,0.11-1.225,0.333s-0.639,0.525-0.85,0.911v6.418h-1.604V9.466H136.035z"/>
			<path fill="#CC1009" d="M145.584,17.006h5.082v1.262h-6.994v-1.131l4.758-6.409h-4.701V9.466h6.66v1.082L145.584,17.006z"/>
			<path fill="#CC1009" d="M157.857,18.268c-0.057-0.266-0.098-0.501-0.127-0.704s-0.047-0.407-0.053-0.614
				c-0.299,0.423-0.688,0.777-1.168,1.062c-0.479,0.284-0.994,0.427-1.549,0.427c-0.916,0-1.613-0.234-2.096-0.703
				c-0.479-0.469-0.719-1.116-0.719-1.94c0-0.84,0.34-1.497,1.021-1.972c0.68-0.475,1.604-0.712,2.77-0.712h1.74v-0.87
				c0-0.516-0.156-0.924-0.471-1.225c-0.316-0.301-0.76-0.451-1.334-0.451c-0.516,0-0.936,0.131-1.256,0.395
				c-0.324,0.264-0.486,0.578-0.486,0.947h-1.527l-0.018-0.049c-0.033-0.64,0.27-1.225,0.908-1.757
				c0.637-0.531,1.459-0.797,2.467-0.797c0.998,0,1.801,0.254,2.408,0.761s0.91,1.237,0.91,2.192v4.237
				c0,0.314,0.018,0.618,0.049,0.91c0.033,0.294,0.092,0.581,0.18,0.863H157.857z M155.197,17.087c0.578,0,1.104-0.148,1.57-0.445
				c0.465-0.298,0.77-0.639,0.91-1.022v-1.427h-1.799c-0.643,0-1.162,0.161-1.549,0.486c-0.387,0.324-0.58,0.706-0.58,1.144
				c0,0.389,0.121,0.697,0.365,0.925C154.359,16.974,154.719,17.087,155.197,17.087z"/>
			<path fill="#CC1009" d="M161.24,14.029c0-1.415,0.303-2.557,0.908-3.424c0.604-0.868,1.451-1.302,2.541-1.302
				c0.514,0,0.971,0.095,1.369,0.284c0.4,0.19,0.738,0.467,1.021,0.83v-4.84h1.602v12.689h-1.309l-0.188-1.083
				c-0.287,0.412-0.641,0.725-1.057,0.937c-0.418,0.211-0.902,0.316-1.457,0.316c-1.072,0-1.914-0.389-2.521-1.167
				s-0.91-1.802-0.91-3.07V14.029z M162.842,14.2c0,0.889,0.182,1.602,0.547,2.135c0.361,0.534,0.926,0.802,1.689,0.802
				c0.479,0,0.879-0.109,1.203-0.325c0.328-0.217,0.594-0.521,0.799-0.911v-4.107c-0.205-0.363-0.473-0.651-0.801-0.866
				s-0.723-0.321-1.184-0.321c-0.771,0-1.336,0.316-1.705,0.951c-0.365,0.635-0.549,1.459-0.549,2.473V14.2z"/>
			<path fill="#CC1009" d="M176.482,18.268c-0.055-0.266-0.098-0.501-0.127-0.704s-0.047-0.407-0.053-0.614
				c-0.299,0.423-0.686,0.777-1.168,1.062c-0.479,0.284-0.996,0.427-1.549,0.427c-0.916,0-1.613-0.234-2.094-0.703
				c-0.479-0.469-0.719-1.116-0.719-1.94c0-0.84,0.34-1.497,1.021-1.972c0.68-0.475,1.604-0.712,2.768-0.712h1.74v-0.87
				c0-0.516-0.156-0.924-0.471-1.225c-0.316-0.301-0.76-0.451-1.334-0.451c-0.516,0-0.934,0.131-1.256,0.395
				c-0.324,0.264-0.484,0.578-0.484,0.947h-1.531l-0.016-0.049c-0.031-0.64,0.27-1.225,0.908-1.757
				c0.637-0.531,1.459-0.797,2.469-0.797c0.996,0,1.799,0.254,2.406,0.761s0.912,1.237,0.912,2.192v4.237
				c0,0.314,0.016,0.618,0.049,0.91c0.031,0.294,0.092,0.581,0.178,0.863H176.482z M173.822,17.087c0.58,0,1.104-0.148,1.57-0.445
				c0.465-0.298,0.77-0.639,0.91-1.022v-1.427h-1.797c-0.645,0-1.162,0.161-1.549,0.486c-0.387,0.324-0.582,0.706-0.582,1.144
				c0,0.389,0.121,0.697,0.365,0.925C172.984,16.974,173.346,17.087,173.822,17.087z"/>
		</g>
	</g>
	<path fill="#CC1009" d="M23.285,14.443v-2.887c-1.475-0.524-2.406-0.67-2.875-1.802V9.754c-0.469-1.132,0.09-1.903,0.756-3.307
		l-2.037-2.039c-1.393,0.661-2.172,1.228-3.307,0.756l-0.004-0.001c-1.133-0.47-1.279-1.405-1.801-2.871h-2.885
		c-0.52,1.458-0.668,2.401-1.801,2.871L9.33,5.164C8.195,5.635,7.426,5.075,6.023,4.408L3.982,6.447
		c0.664,1.399,1.229,2.171,0.756,3.308c-0.471,1.135-1.412,1.284-2.871,1.802v2.887c1.457,0.517,2.4,0.668,2.871,1.8
		c0.475,1.145-0.102,1.933-0.756,3.309l2.041,2.039c1.393-0.661,2.17-1.226,3.307-0.756h0.002c1.133,0.471,1.281,1.409,1.801,2.873
		h2.885c0.518-1.459,0.668-2.402,1.809-2.876c1.127-0.467,1.893,0.089,3.303,0.759l2.037-2.039
		c-0.664-1.396-1.229-2.172-0.756-3.308C20.879,15.111,21.826,14.96,23.285,14.443z M12.502,17.858
		c-2.766,0-5.008-2.241-5.008-5.008s2.242-5.009,5.008-5.009c2.768,0,5.008,2.242,5.008,5.009S15.27,17.858,12.502,17.858z"/>
</g>
</svg>
