<?xml version="1.0" encoding="utf-8"?>
<!-- Generator: Adobe Illustrator 15.0.0, SVG Export Plug-In . SVG Version: 6.00 Build 0)  -->
<!DOCTYPE svg PUBLIC "-//W3C//DTD SVG 1.1//EN" "http://www.w3.org/Graphics/SVG/1.1/DTD/svg11.dtd">
<svg version="1.1" id="Capa_1" xmlns="http://www.w3.org/2000/svg" xmlns:xlink="http://www.w3.org/1999/xlink" x="0px" y="0px"
	 width="81.33px" height="20.612px" viewBox="0 0 81.33 20.612" enable-background="new 0 0 81.33 20.612" xml:space="preserve">
<g>
	<g>
		<path fill="#CC1009" d="M1.46,13.891V5.042h2.717c1.159,0,2.089,0.356,2.79,1.067c0.701,0.711,1.052,1.63,1.052,2.756v1.209
			c0,1.13-0.351,2.049-1.052,2.756c-0.701,0.707-1.631,1.061-2.79,1.061H1.46z M2.657,5.984v6.965h1.52
			c0.818,0,1.464-0.269,1.936-0.808c0.472-0.539,0.708-1.229,0.708-2.071v-1.22c0-0.834-0.236-1.521-0.708-2.059
			C5.641,6.253,4.995,5.984,4.177,5.984H2.657z"/>
		<path fill="#CC1009" d="M12.785,14.019c-0.916,0-1.644-0.305-2.185-0.915s-0.812-1.401-0.812-2.373v-0.268
			c0-0.936,0.279-1.715,0.836-2.337c0.557-0.622,1.216-0.933,1.978-0.933c0.887,0,1.558,0.267,2.012,0.802
			c0.454,0.535,0.681,1.248,0.681,2.139v0.748h-4.267l-0.018,0.03c0.012,0.63,0.172,1.148,0.48,1.555
			c0.308,0.406,0.74,0.609,1.295,0.609c0.405,0,0.76-0.058,1.066-0.173c0.306-0.115,0.57-0.274,0.793-0.477l0.468,0.779
			c-0.235,0.232-0.545,0.426-0.93,0.581C13.798,13.941,13.332,14.019,12.785,14.019z M12.603,8.136
			c-0.401,0-0.744,0.168-1.027,0.506c-0.284,0.337-0.458,0.76-0.523,1.269l0.012,0.03h3.033V9.783c0-0.468-0.125-0.86-0.377-1.175
			C13.47,8.293,13.097,8.136,12.603,8.136z"/>
		<path fill="#CC1009" d="M21.083,12.141c0-0.263-0.1-0.48-0.301-0.65c-0.201-0.17-0.581-0.318-1.14-0.444
			c-0.798-0.174-1.399-0.41-1.802-0.707c-0.403-0.297-0.605-0.703-0.605-1.217c0-0.534,0.227-0.989,0.681-1.365
			c0.454-0.376,1.045-0.564,1.775-0.564c0.766,0,1.375,0.196,1.826,0.589s0.667,0.871,0.647,1.434l-0.012,0.037h-1.143
			c0-0.288-0.121-0.546-0.362-0.775s-0.56-0.343-0.957-0.343c-0.426,0-0.742,0.093-0.948,0.279c-0.207,0.187-0.31,0.412-0.31,0.675
			c0,0.259,0.091,0.464,0.273,0.614c0.183,0.15,0.553,0.284,1.112,0.401c0.831,0.178,1.448,0.42,1.854,0.726
			c0.405,0.306,0.608,0.716,0.608,1.231c0,0.583-0.236,1.055-0.708,1.416c-0.472,0.36-1.089,0.541-1.851,0.541
			c-0.839,0-1.499-0.212-1.981-0.638c-0.482-0.425-0.711-0.921-0.687-1.489l0.012-0.037h1.143c0.02,0.423,0.178,0.733,0.474,0.929
			c0.296,0.195,0.643,0.293,1.04,0.293c0.425,0,0.759-0.086,1-0.258C20.963,12.646,21.083,12.42,21.083,12.141z"/>
		<path fill="#CC1009" d="M27.066,13.077c0.397,0,0.746-0.123,1.048-0.368c0.302-0.245,0.453-0.546,0.453-0.902h1.076l0.012,0.036
			c0.02,0.567-0.232,1.072-0.757,1.514c-0.524,0.441-1.135,0.662-1.832,0.662c-0.957,0-1.688-0.312-2.194-0.936
			s-0.76-1.408-0.76-2.352v-0.255c0-0.936,0.254-1.717,0.763-2.343c0.509-0.626,1.239-0.939,2.191-0.939
			c0.77,0,1.398,0.227,1.887,0.681c0.488,0.454,0.724,1.011,0.708,1.671l-0.012,0.036h-1.082c0-0.401-0.142-0.742-0.425-1.024
			c-0.284-0.282-0.643-0.422-1.076-0.422c-0.628,0-1.077,0.226-1.346,0.677c-0.27,0.451-0.404,1.004-0.404,1.66v0.255
			c0,0.672,0.134,1.231,0.401,1.678C25.984,12.853,26.434,13.077,27.066,13.077z"/>
		<path fill="#CC1009" d="M35.662,13.891c-0.041-0.198-0.072-0.374-0.094-0.526c-0.022-0.152-0.036-0.305-0.04-0.458
			c-0.223,0.316-0.514,0.58-0.872,0.793s-0.745,0.319-1.158,0.319c-0.685,0-1.207-0.175-1.565-0.525s-0.538-0.833-0.538-1.45
			c0-0.628,0.254-1.119,0.763-1.474c0.509-0.354,1.198-0.532,2.07-0.532h1.3v-0.65c0-0.385-0.118-0.69-0.353-0.915
			c-0.235-0.225-0.567-0.337-0.997-0.337c-0.385,0-0.698,0.098-0.939,0.295c-0.241,0.196-0.362,0.432-0.362,0.708h-1.143
			l-0.012-0.037c-0.024-0.478,0.202-0.916,0.678-1.313c0.476-0.397,1.091-0.595,1.845-0.595c0.746,0,1.345,0.189,1.799,0.568
			c0.454,0.379,0.681,0.925,0.681,1.638v3.167c0,0.235,0.012,0.462,0.037,0.681s0.069,0.434,0.134,0.644H35.662z M33.675,13.01
			c0.434,0,0.824-0.111,1.173-0.333c0.349-0.223,0.575-0.477,0.681-0.764v-1.067h-1.343c-0.482,0-0.868,0.121-1.158,0.364
			c-0.29,0.242-0.435,0.527-0.435,0.854c0,0.291,0.091,0.521,0.273,0.691C33.049,12.925,33.318,13.01,33.675,13.01z"/>
		<path fill="#CC1009" d="M42.198,8.373l-0.614-0.036c-0.316,0-0.583,0.075-0.799,0.225s-0.384,0.361-0.501,0.632v4.698h-1.197
			V7.315h1.07l0.115,0.96c0.187-0.34,0.417-0.605,0.69-0.796s0.588-0.286,0.945-0.286c0.089,0,0.174,0.007,0.255,0.021
			s0.148,0.029,0.201,0.046L42.198,8.373z"/>
		<path fill="#CC1009" d="M43.599,10.725c0-1.058,0.231-1.91,0.693-2.559c0.462-0.648,1.1-0.972,1.914-0.972
			c0.417,0,0.784,0.084,1.1,0.252c0.316,0.168,0.58,0.41,0.79,0.727l0.146-0.857h0.954v6.612c0,0.843-0.245,1.49-0.735,1.941
			c-0.49,0.452-1.197,0.678-2.121,0.678c-0.316,0-0.657-0.043-1.024-0.13c-0.367-0.087-0.69-0.206-0.969-0.355l0.304-0.93
			c0.215,0.122,0.474,0.22,0.778,0.295c0.304,0.075,0.604,0.112,0.899,0.112c0.583,0,1.008-0.133,1.273-0.398
			c0.265-0.266,0.398-0.669,0.398-1.212v-0.742c-0.215,0.276-0.472,0.483-0.772,0.623s-0.644,0.209-1.033,0.209
			c-0.806,0-1.44-0.292-1.902-0.875s-0.693-1.347-0.693-2.291V10.725z M44.796,10.853c0,0.66,0.14,1.191,0.419,1.592
			c0.279,0.401,0.705,0.602,1.276,0.602c0.361,0,0.663-0.082,0.906-0.246s0.444-0.396,0.602-0.696V9.078
			c-0.154-0.279-0.354-0.501-0.602-0.666s-0.545-0.246-0.894-0.246c-0.571,0-0.999,0.239-1.282,0.717s-0.425,1.092-0.425,1.841
			V10.853z"/>
		<path fill="#CC1009" d="M55.598,13.891c-0.041-0.198-0.072-0.374-0.094-0.526c-0.022-0.152-0.036-0.305-0.04-0.458
			c-0.223,0.316-0.514,0.58-0.872,0.793s-0.745,0.319-1.158,0.319c-0.685,0-1.207-0.175-1.565-0.525s-0.538-0.833-0.538-1.45
			c0-0.628,0.254-1.119,0.763-1.474c0.509-0.354,1.198-0.532,2.07-0.532h1.3v-0.65c0-0.385-0.118-0.69-0.353-0.915
			c-0.235-0.225-0.567-0.337-0.997-0.337c-0.385,0-0.698,0.098-0.939,0.295c-0.241,0.196-0.362,0.432-0.362,0.708h-1.143
			l-0.012-0.037c-0.024-0.478,0.202-0.916,0.678-1.313c0.476-0.397,1.091-0.595,1.845-0.595c0.746,0,1.345,0.189,1.799,0.568
			c0.454,0.379,0.681,0.925,0.681,1.638v3.167c0,0.235,0.012,0.462,0.037,0.681s0.069,0.434,0.134,0.644H55.598z M53.61,13.01
			c0.434,0,0.824-0.111,1.173-0.333c0.349-0.223,0.575-0.477,0.681-0.764v-1.067h-1.343c-0.482,0-0.868,0.121-1.158,0.364
			c-0.29,0.242-0.435,0.527-0.435,0.854c0,0.291,0.091,0.521,0.273,0.691C52.984,12.925,53.254,13.01,53.61,13.01z"/>
		<path fill="#CC1009" d="M62.134,8.373L61.52,8.336c-0.316,0-0.583,0.075-0.799,0.225s-0.384,0.361-0.501,0.632v4.698h-1.197V7.315
			h1.07l0.115,0.96c0.187-0.34,0.417-0.605,0.69-0.796s0.588-0.286,0.945-0.286c0.089,0,0.174,0.007,0.255,0.021
			s0.148,0.029,0.201,0.046L62.134,8.373z"/>
	</g>
</g>
<path fill="#CC1009" d="M74.514,2.936l0.019,3.573h3.611V17.69L66.41,17.685L66.391,2.931L74.514,2.936z M75.283,1.259h-10.5v18h15
	v-13.5L75.283,1.259z"/>
</svg>
