<?xml version="1.0" encoding="utf-8"?>
<!-- Generator: Adobe Illustrator 15.0.0, SVG Export Plug-In . SVG Version: 6.00 Build 0)  -->
<!DOCTYPE svg PUBLIC "-//W3C//DTD SVG 1.1//EN" "http://www.w3.org/Graphics/SVG/1.1/DTD/svg11.dtd">
<svg version="1.1" id="Capa_1" xmlns="http://www.w3.org/2000/svg" xmlns:xlink="http://www.w3.org/1999/xlink" x="0px" y="0px"
	 width="107.964px" height="20.611px" viewBox="0 0 107.964 20.611" enable-background="new 0 0 107.964 20.611"
	 xml:space="preserve">
<g>
	<g>
		<g>
			<path fill="#D84B4B" d="M2.328,15.76V3.844h3.659c1.56,0,2.813,0.479,3.757,1.437c0.944,0.958,1.417,2.195,1.417,3.713v1.628
				c0,1.521-0.473,2.76-1.417,3.713C8.8,15.285,7.547,15.76,5.987,15.76H2.328z M3.941,5.112v9.381h2.046
				c1.102,0,1.972-0.362,2.606-1.089c0.636-0.726,0.955-1.653,0.955-2.789V8.972c0-1.124-0.318-2.05-0.955-2.771
				C7.959,5.475,7.089,5.112,5.987,5.112H3.941z"/>
			<path fill="#D84B4B" d="M17.581,15.933c-1.233,0-2.214-0.41-2.943-1.231c-0.728-0.82-1.093-1.887-1.093-3.196v-0.358
				c0-1.261,0.376-2.312,1.126-3.146s1.638-1.256,2.664-1.256c1.196,0,2.099,0.359,2.71,1.08s0.917,1.682,0.917,2.882v1.006h-5.746
				l-0.024,0.042c0.016,0.851,0.231,1.549,0.646,2.095s0.997,0.818,1.744,0.818c0.546,0,1.024-0.078,1.437-0.231
				c0.412-0.155,0.768-0.369,1.068-0.645l0.63,1.05c-0.317,0.313-0.733,0.574-1.252,0.782
				C18.945,15.829,18.317,15.933,17.581,15.933z M17.334,8.009c-0.539,0-1.001,0.229-1.383,0.684
				c-0.381,0.454-0.617,1.021-0.704,1.709l0.017,0.042h4.084V10.23c0-0.632-0.169-1.16-0.507-1.583
				C18.503,8.221,18,8.009,17.334,8.009z"/>
			<path fill="#D84B4B" d="M28.757,13.404c0-0.354-0.135-0.646-0.405-0.876c-0.27-0.23-0.781-0.429-1.534-0.598
				c-1.076-0.234-1.884-0.554-2.427-0.953s-0.814-0.946-0.814-1.64c0-0.719,0.306-1.332,0.917-1.839
				c0.61-0.506,1.408-0.759,2.39-0.759c1.032,0,1.852,0.264,2.46,0.794c0.608,0.528,0.898,1.173,0.872,1.931L30.2,9.516h-1.539
				c0-0.39-0.162-0.735-0.487-1.044c-0.325-0.31-0.754-0.462-1.29-0.462c-0.573,0-0.999,0.126-1.277,0.376
				C25.33,8.637,25.19,8.941,25.19,9.296c0,0.351,0.123,0.625,0.369,0.825c0.246,0.202,0.745,0.382,1.498,0.542
				c1.119,0.239,1.951,0.565,2.497,0.979c0.546,0.411,0.819,0.964,0.819,1.656c0,0.785-0.318,1.423-0.954,1.907
				c-0.636,0.484-1.467,0.729-2.493,0.729c-1.129,0-2.019-0.286-2.668-0.858c-0.649-0.573-0.957-1.241-0.924-2.006l0.017-0.05h1.539
				c0.027,0.569,0.24,0.986,0.638,1.251c0.399,0.264,0.866,0.395,1.4,0.395c0.573,0,1.022-0.113,1.346-0.349
				C28.594,14.084,28.757,13.78,28.757,13.404z"/>
			<path fill="#D84B4B" d="M36.815,14.664c0.535,0,1.004-0.165,1.412-0.495c0.407-0.33,0.61-0.733,0.61-1.215h1.449l0.017,0.049
				c0.027,0.766-0.312,1.442-1.02,2.038c-0.706,0.597-1.529,0.894-2.467,0.894c-1.289,0-2.273-0.419-2.956-1.262
				c-0.682-0.84-1.023-1.896-1.023-3.168v-0.343c0-1.262,0.343-2.313,1.027-3.155c0.686-0.843,1.668-1.265,2.952-1.265
				c1.036,0,1.883,0.306,2.541,0.917c0.657,0.61,0.975,1.359,0.954,2.25l-0.016,0.048h-1.457c0-0.54-0.191-0.999-0.573-1.378
				c-0.382-0.381-0.866-0.567-1.449-0.567c-0.847,0-1.451,0.304-1.813,0.91c-0.363,0.607-0.545,1.354-0.545,2.236v0.344
				c0,0.903,0.18,1.657,0.54,2.261C35.357,14.363,35.963,14.664,36.815,14.664z"/>
			<path fill="#D84B4B" d="M48.392,15.76c-0.054-0.269-0.096-0.505-0.127-0.708c-0.03-0.205-0.048-0.41-0.053-0.617
				c-0.3,0.425-0.692,0.779-1.175,1.065s-1.003,0.432-1.56,0.432c-0.922,0-1.625-0.235-2.107-0.707
				c-0.482-0.475-0.725-1.124-0.725-1.954c0-0.845,0.343-1.506,1.027-1.983c0.685-0.478,1.613-0.717,2.788-0.717h1.752V9.696
				c0-0.518-0.159-0.93-0.475-1.23C47.42,8.162,46.973,8.01,46.395,8.01c-0.519,0-0.94,0.133-1.265,0.396
				c-0.325,0.264-0.487,0.581-0.487,0.952h-1.539L43.088,9.31C43.055,8.667,43.359,8.078,44,7.542
				c0.641-0.534,1.469-0.801,2.484-0.801c1.004,0,1.813,0.255,2.423,0.765c0.611,0.513,0.917,1.246,0.917,2.206v4.267
				c0,0.314,0.017,0.622,0.049,0.917c0.033,0.295,0.093,0.584,0.181,0.867L48.392,15.76L48.392,15.76z M45.715,14.573
				c0.583,0,1.11-0.149,1.579-0.448c0.47-0.299,0.775-0.643,0.917-1.026v-1.438h-1.809c-0.649,0-1.169,0.161-1.56,0.488
				c-0.39,0.326-0.585,0.71-0.585,1.149c0,0.395,0.123,0.702,0.368,0.933C44.872,14.46,45.235,14.573,45.715,14.573z"/>
			<path fill="#D84B4B" d="M57.195,8.329l-0.826-0.05c-0.427,0-0.785,0.102-1.078,0.303C55,8.785,54.774,9.068,54.617,9.434v6.326
				h-1.613V6.905h1.44L54.6,8.198c0.251-0.458,0.562-0.814,0.929-1.071c0.369-0.257,0.793-0.385,1.273-0.385
				c0.119,0,0.234,0.009,0.344,0.027c0.109,0.021,0.2,0.04,0.271,0.063L57.195,8.329z"/>
			<path fill="#D84B4B" d="M59.082,11.496c0-1.425,0.313-2.572,0.935-3.443c0.622-0.873,1.479-1.311,2.575-1.311
				c0.563,0,1.059,0.112,1.481,0.339c0.425,0.229,0.78,0.552,1.064,0.979l0.196-1.154h1.285v8.905c0,1.136-0.33,2.007-0.99,2.613
				c-0.662,0.608-1.613,0.913-2.856,0.913c-0.425,0-0.885-0.06-1.378-0.175c-0.495-0.118-0.932-0.275-1.307-0.479l0.41-1.253
				c0.289,0.164,0.639,0.296,1.047,0.396c0.41,0.102,0.813,0.15,1.211,0.15c0.787,0,1.355-0.181,1.715-0.536
				c0.357-0.356,0.535-0.901,0.535-1.633V14.81c-0.289,0.372-0.635,0.649-1.039,0.839c-0.404,0.188-0.867,0.282-1.393,0.282
				c-1.087,0-1.938-0.395-2.563-1.181c-0.622-0.786-0.935-1.813-0.935-3.085v-0.173L59.082,11.496L59.082,11.496z M60.692,11.669
				c0,0.891,0.188,1.604,0.565,2.146s0.949,0.812,1.719,0.812c0.484,0,0.893-0.108,1.22-0.332c0.327-0.222,0.597-0.531,0.81-0.938
				V9.278c-0.207-0.376-0.478-0.675-0.81-0.896c-0.333-0.22-0.733-0.332-1.204-0.332c-0.769,0-1.345,0.322-1.728,0.968
				c-0.382,0.645-0.573,1.47-0.573,2.479L60.692,11.669L60.692,11.669z"/>
			<path fill="#D84B4B" d="M75.242,15.76c-0.056-0.269-0.097-0.505-0.128-0.708c-0.03-0.205-0.048-0.41-0.053-0.617
				c-0.3,0.425-0.692,0.779-1.174,1.065c-0.483,0.287-1.003,0.432-1.56,0.432c-0.924,0-1.625-0.235-2.107-0.707
				c-0.483-0.475-0.725-1.124-0.725-1.954c0-0.845,0.342-1.506,1.024-1.983c0.688-0.478,1.612-0.717,2.788-0.717h1.751V9.696
				c0-0.518-0.159-0.93-0.478-1.23c-0.313-0.304-0.763-0.454-1.34-0.454c-0.518,0-0.938,0.133-1.264,0.396
				C71.653,8.672,71.49,8.989,71.49,9.36h-1.539l-0.017-0.049c-0.032-0.646,0.271-1.232,0.913-1.771
				c0.641-0.534,1.47-0.801,2.484-0.801c1.004,0,1.813,0.255,2.422,0.765c0.61,0.513,0.918,1.246,0.918,2.206v4.267
				c0,0.314,0.017,0.622,0.05,0.917c0.032,0.295,0.092,0.584,0.18,0.867L75.242,15.76L75.242,15.76z M72.564,14.573
				c0.584,0,1.109-0.149,1.579-0.448s0.774-0.643,0.917-1.026v-1.438h-1.809c-0.649,0-1.17,0.161-1.563,0.488
				c-0.393,0.326-0.585,0.71-0.585,1.149c0,0.395,0.123,0.702,0.369,0.933C71.72,14.46,72.083,14.573,72.564,14.573z"/>
			<path fill="#D84B4B" d="M84.044,8.329l-0.828-0.05c-0.426,0-0.783,0.102-1.075,0.303c-0.292,0.202-0.519,0.485-0.677,0.854v6.326
				h-1.611V6.905h1.439l0.154,1.293c0.25-0.458,0.563-0.814,0.932-1.071c0.367-0.257,0.791-0.385,1.271-0.385
				c0.12,0,0.235,0.009,0.345,0.027c0.108,0.021,0.199,0.04,0.271,0.063L84.044,8.329z"/>
		</g>
	</g>
</g>
<path fill="#D84B4B" d="M100.054,2.3l0.021,3.907h3.944V18.43l-12.826-0.008L91.173,2.295L100.054,2.3z M100.894,0.469H89.417
	v19.676h16.396V5.387L100.894,0.469z"/>
<polygon fill="#D84B4B" points="98.765,12.336 98.765,5.46 96.154,5.46 96.154,12.336 93.11,12.336 97.275,16.668 101.655,12.336 
	"/>
</svg>
