<?xml version="1.0" encoding="utf-8"?>
<!-- Generator: Adobe Illustrator 15.0.0, SVG Export Plug-In . SVG Version: 6.00 Build 0)  -->
<!DOCTYPE svg PUBLIC "-//W3C//DTD SVG 1.1//EN" "http://www.w3.org/Graphics/SVG/1.1/DTD/svg11.dtd">
<svg version="1.1" id="Capa_1" xmlns="http://www.w3.org/2000/svg" xmlns:xlink="http://www.w3.org/1999/xlink" x="0px" y="0px"
	 width="126.309px" height="20.611px" viewBox="0 0 126.309 20.611" enable-background="new 0 0 126.309 20.611"
	 xml:space="preserve">
<path fill="#D84B4B" d="M116.513,18.442l-2.198-3.603c1.545-1.491,1.911-3.899,0.745-5.81c-1.352-2.21-4.236-2.908-6.446-1.558
	c-2.211,1.35-2.909,4.235-1.558,6.446c1.225,2.006,3.71,2.746,5.813,1.863l2.174,3.559L116.513,18.442z M108.297,13.161
	c-0.954-1.563-0.462-3.602,1.103-4.556c1.563-0.955,3.603-0.462,4.557,1.101c0.955,1.563,0.462,3.603-1.101,4.556
	C111.292,15.216,109.251,14.725,108.297,13.161z"/>
<g>
	<path fill="#D84B4B" d="M1.952,11.304v4.645H0.384V4.367h4.432c1.234,0,2.194,0.318,2.879,0.954C8.378,5.958,8.72,6.796,8.72,7.835
		c0,1.056-0.343,1.896-1.026,2.525c-0.685,0.628-1.645,0.943-2.879,0.943L1.952,11.304L1.952,11.304z M1.952,10.071h2.864
		c0.785,0,1.371-0.21,1.758-0.631s0.581-0.951,0.581-1.592c0-0.642-0.196-1.177-0.586-1.605C6.179,5.815,5.595,5.6,4.815,5.6H1.952
		V10.071z"/>
	<path fill="#D84B4B" d="M15.006,8.726l-0.803-0.048c-0.414,0-0.763,0.098-1.046,0.294c-0.283,0.195-0.502,0.473-0.656,0.827v6.149
		h-1.566V7.344h1.399L12.485,8.6c0.244-0.446,0.545-0.793,0.903-1.042c0.357-0.25,0.771-0.375,1.236-0.375
		c0.117,0,0.229,0.01,0.334,0.027c0.106,0.02,0.193,0.039,0.264,0.061L15.006,8.726z"/>
	<path fill="#D84B4B" d="M20.346,16.116c-1.199,0-2.152-0.397-2.86-1.196s-1.063-1.834-1.063-3.106v-0.35
		c0-1.226,0.365-2.245,1.095-3.06c0.729-0.813,1.592-1.221,2.589-1.221c1.161,0,2.039,0.351,2.633,1.05
		c0.594,0.7,0.891,1.634,0.891,2.8v0.979h-5.583l-0.023,0.039c0.016,0.824,0.225,1.504,0.628,2.034s0.967,0.796,1.694,0.796
		c0.529,0,0.995-0.073,1.396-0.226s0.746-0.359,1.038-0.625l0.613,1.021c-0.309,0.305-0.713,0.558-1.218,0.761
		S21.062,16.116,20.346,16.116z M20.107,8.416c-0.525,0-0.974,0.222-1.344,0.662c-0.372,0.441-0.6,0.995-0.685,1.661l0.017,0.04
		h3.97v-0.206c0-0.613-0.165-1.126-0.494-1.538S20.754,8.416,20.107,8.416z"/>
	<path fill="#D84B4B" d="M28.564,13.412l0.135,0.604h0.048l0.151-0.604l1.979-6.068h1.6l-3.166,8.605h-1.186L24.92,7.344h1.607
		L28.564,13.412z"/>
	<path fill="#D84B4B" d="M35.987,5.139H34.42v-1.6h1.567V5.139z M35.987,15.949H34.42V7.344h1.567V15.949z"/>
	<path fill="#D84B4B" d="M43.808,13.659c0-0.346-0.132-0.629-0.395-0.852c-0.262-0.225-0.759-0.416-1.491-0.581
		c-1.045-0.229-1.831-0.535-2.358-0.925c-0.528-0.391-0.791-0.921-0.791-1.594c0-0.699,0.297-1.295,0.891-1.787
		s1.368-0.738,2.322-0.738c1.002,0,1.799,0.258,2.391,0.771c0.591,0.516,0.874,1.141,0.848,1.877L45.208,9.88h-1.496
		c0-0.376-0.157-0.714-0.473-1.014c-0.315-0.299-0.733-0.45-1.253-0.45c-0.557,0-0.971,0.123-1.241,0.366
		c-0.27,0.244-0.405,0.538-0.405,0.883c0,0.34,0.12,0.607,0.358,0.805c0.239,0.195,0.724,0.37,1.456,0.523
		c1.087,0.234,1.896,0.551,2.426,0.951s0.796,0.938,0.796,1.611c0,0.764-0.31,1.381-0.927,1.854
		c-0.618,0.471-1.425,0.707-2.422,0.707c-1.098,0-1.962-0.278-2.593-0.835s-0.932-1.206-0.899-1.948l0.016-0.048h1.496
		c0.026,0.553,0.233,0.959,0.62,1.214c0.388,0.257,0.84,0.384,1.36,0.384c0.557,0,0.993-0.111,1.309-0.337
		C43.65,14.32,43.808,14.024,43.808,13.659z"/>
	<path fill="#D84B4B" d="M53.196,14.677c-0.271,0.462-0.618,0.815-1.042,1.065c-0.425,0.248-0.915,0.373-1.472,0.373
		c-0.938,0-1.67-0.3-2.195-0.897c-0.525-0.601-0.787-1.533-0.787-2.802V7.344h1.567v5.091c0,0.917,0.135,1.549,0.405,1.894
		c0.271,0.344,0.692,0.518,1.266,0.518c0.557,0,1.017-0.112,1.38-0.339c0.363-0.226,0.637-0.545,0.823-0.958V7.344h1.566v8.605H53.3
		L53.196,14.677z"/>
	<path fill="#D84B4B" d="M62.688,15.949c-0.055-0.259-0.097-0.489-0.124-0.688c-0.029-0.199-0.046-0.399-0.052-0.602
		c-0.292,0.413-0.673,0.76-1.143,1.038s-0.975,0.417-1.516,0.417c-0.896,0-1.578-0.229-2.049-0.688
		c-0.47-0.459-0.703-1.093-0.703-1.897c0-0.822,0.333-1.465,0.998-1.929c0.666-0.464,1.567-0.696,2.709-0.696h1.702v-0.851
		c0-0.505-0.153-0.903-0.463-1.198c-0.307-0.294-0.741-0.441-1.304-0.441c-0.504,0-0.913,0.129-1.229,0.387
		s-0.474,0.565-0.474,0.927h-1.496L57.53,9.68c-0.031-0.626,0.265-1.198,0.888-1.719c0.623-0.52,1.429-0.779,2.414-0.779
		c0.978,0,1.761,0.248,2.354,0.744c0.595,0.495,0.891,1.21,0.891,2.144v4.145c0,0.309,0.018,0.604,0.048,0.891
		c0.032,0.287,0.091,0.567,0.175,0.844H62.688z M60.086,14.796c0.567,0,1.078-0.145,1.535-0.437
		c0.456-0.291,0.752-0.624,0.892-0.999v-1.396h-1.759c-0.632,0-1.137,0.158-1.516,0.477c-0.38,0.316-0.568,0.688-0.568,1.119
		c0,0.38,0.118,0.682,0.357,0.902C59.266,14.683,59.619,14.796,60.086,14.796z"/>
	<path fill="#D84B4B" d="M68.457,15.949H66.89V3.54h1.566V15.949z"/>
	<path fill="#D84B4B" d="M72.967,5.139h-1.565v-1.6h1.565V5.139z M72.967,15.949h-1.565V7.344h1.565V15.949z"/>
	<path fill="#D84B4B" d="M77.264,14.716h4.973v1.233h-6.842v-1.104l4.652-6.269H75.45V7.344h6.516V8.4L77.264,14.716z"/>
	<path fill="#D84B4B" d="M89.676,15.949c-0.054-0.259-0.095-0.489-0.123-0.688c-0.028-0.199-0.047-0.399-0.053-0.602
		c-0.291,0.413-0.671,0.76-1.142,1.038c-0.469,0.278-0.975,0.417-1.516,0.417c-0.896,0-1.578-0.229-2.049-0.688
		c-0.47-0.459-0.703-1.093-0.703-1.897c0-0.822,0.333-1.465,0.998-1.929s1.568-0.696,2.708-0.696H89.5v-0.851
		c0-0.505-0.152-0.903-0.461-1.198c-0.308-0.294-0.743-0.441-1.305-0.441c-0.503,0-0.913,0.129-1.229,0.387
		c-0.314,0.258-0.474,0.565-0.474,0.927h-1.495L84.519,9.68c-0.031-0.626,0.264-1.198,0.888-1.719
		c0.622-0.52,1.428-0.779,2.414-0.779c0.976,0,1.761,0.248,2.354,0.744c0.595,0.495,0.892,1.21,0.892,2.144v4.145
		c0,0.309,0.016,0.604,0.048,0.891c0.031,0.287,0.09,0.567,0.175,0.844H89.676z M87.075,14.796c0.567,0,1.079-0.145,1.536-0.437
		c0.455-0.291,0.752-0.624,0.89-0.999v-1.396h-1.758c-0.631,0-1.136,0.158-1.515,0.477c-0.38,0.316-0.569,0.688-0.569,1.119
		c0,0.38,0.119,0.682,0.358,0.902C86.255,14.684,86.608,14.796,87.075,14.796z"/>
	<path fill="#D84B4B" d="M97.823,8.726l-0.804-0.048c-0.413,0-0.764,0.098-1.046,0.294C95.69,9.168,95.471,9.445,95.317,9.8v6.149
		H93.75V7.344h1.399L95.3,8.6c0.243-0.446,0.546-0.793,0.902-1.042c0.358-0.25,0.771-0.375,1.237-0.375
		c0.117,0,0.229,0.01,0.334,0.027c0.105,0.02,0.192,0.039,0.263,0.061L97.823,8.726z"/>
</g>
<path fill="#D84B4B" d="M113.688,2.3l0.021,3.907h3.945V18.43l-12.826-0.008l-0.02-16.128L113.688,2.3z M114.528,0.469h-11.478
	v19.676h16.396V5.387L114.528,0.469z"/>
</svg>
