<?xml version="1.0" encoding="utf-8"?>
<!-- Generator: Adobe Illustrator 15.0.0, SVG Export Plug-In . SVG Version: 6.00 Build 0)  -->
<!DOCTYPE svg PUBLIC "-//W3C//DTD SVG 1.1//EN" "http://www.w3.org/Graphics/SVG/1.1/DTD/svg11.dtd">
<svg version="1.1" id="Capa_1" xmlns="http://www.w3.org/2000/svg" xmlns:xlink="http://www.w3.org/1999/xlink" x="0px" y="0px"
	 width="84.297px" height="20.611px" viewBox="0 0 84.297 20.611" enable-background="new 0 0 84.297 20.611" xml:space="preserve">
<polygon fill="#EF3A43" points="72.852,7.167 66.064,7.167 66.064,14.021 72.852,14.021 72.852,18.684 80.909,10.937 72.852,2.792 
	"/>
<g>
	<g>
		<path fill="#EF3A43" d="M8.286,13.055l0.22,0.854h0.051l0.211-0.838l2.944-9.112h2.192l-4.4,12.319H7.549L3.157,3.958h2.192
			L8.286,13.055z"/>
		<path fill="#EF3A43" d="M18.172,4.881h-2.057V3.078h2.057V4.881z M18.172,16.279h-2.057V7.124h2.057V16.279z"/>
		<path fill="#EF3A43" d="M26.485,13.791c0-0.316-0.136-0.578-0.406-0.787c-0.271-0.208-0.776-0.393-1.515-0.55
			c-1.094-0.231-1.922-0.561-2.484-0.986c-0.561-0.426-0.842-1.005-0.842-1.739c0-0.768,0.324-1.422,0.973-1.963
			c0.648-0.542,1.503-0.813,2.564-0.813c1.117,0,2.004,0.274,2.661,0.824c0.657,0.551,0.972,1.231,0.943,2.043l-0.017,0.052H26.39
			c0-0.378-0.144-0.702-0.432-0.974c-0.288-0.271-0.682-0.405-1.185-0.405c-0.496,0-0.875,0.111-1.134,0.335
			C23.38,9.051,23.25,9.323,23.25,9.644s0.123,0.577,0.368,0.767c0.246,0.188,0.744,0.355,1.494,0.503
			c1.15,0.236,2.004,0.57,2.559,1.003c0.556,0.432,0.834,1.019,0.834,1.764c0,0.823-0.34,1.492-1.02,2.005
			c-0.68,0.513-1.575,0.771-2.687,0.771c-1.19,0-2.13-0.305-2.818-0.913c-0.688-0.61-1.016-1.31-0.981-2.1l0.017-0.051h1.912
			c0.023,0.531,0.214,0.917,0.576,1.16c0.36,0.242,0.801,0.364,1.32,0.364c0.53,0,0.939-0.103,1.227-0.306
			C26.339,14.408,26.485,14.135,26.485,13.791z"/>
		<path fill="#EF3A43" d="M33.41,4.881h-2.057V3.078h2.057V4.881z M33.41,16.279h-2.057V7.124h2.057V16.279z"/>
		<path fill="#EF3A43" d="M39.133,4.897v2.227h1.642v1.522h-1.642v5.061c0,0.378,0.082,0.646,0.246,0.808s0.381,0.241,0.651,0.241
			c0.113,0,0.223-0.01,0.33-0.03c0.107-0.02,0.208-0.046,0.304-0.08l0.22,1.506c-0.175,0.097-0.384,0.171-0.626,0.226
			c-0.243,0.053-0.494,0.08-0.753,0.08c-0.755,0-1.348-0.222-1.777-0.664c-0.429-0.443-0.643-1.139-0.643-2.086V8.646h-1.396V7.124
			h1.396V4.897H39.133z"/>
		<path fill="#EF3A43" d="M48.979,16.279c-0.074-0.23-0.135-0.457-0.183-0.677s-0.08-0.439-0.097-0.661
			c-0.282,0.43-0.653,0.789-1.113,1.079c-0.46,0.291-0.975,0.437-1.544,0.437c-0.953,0-1.685-0.245-2.196-0.736
			c-0.51-0.491-0.766-1.165-0.766-2.022c0-0.885,0.35-1.574,1.049-2.068c0.7-0.493,1.686-0.74,2.953-0.74h1.6v-0.804
			c0-0.48-0.142-0.855-0.423-1.126c-0.282-0.271-0.686-0.406-1.21-0.406c-0.468,0-0.84,0.114-1.117,0.339
			c-0.275,0.227-0.414,0.517-0.414,0.872h-1.98l-0.008-0.051c-0.039-0.722,0.283-1.362,0.969-1.921s1.578-0.838,2.678-0.838
			c1.066,0,1.926,0.271,2.581,0.813s0.981,1.32,0.981,2.336v4.07c0,0.378,0.025,0.74,0.076,1.087
			c0.052,0.347,0.133,0.688,0.246,1.02L48.979,16.279L48.979,16.279z M46.456,14.806c0.521,0,0.985-0.129,1.399-0.389
			c0.416-0.259,0.69-0.556,0.826-0.89v-1.354h-1.634c-0.598,0-1.065,0.147-1.403,0.444c-0.338,0.296-0.508,0.644-0.508,1.045
			c0,0.35,0.114,0.627,0.342,0.833C45.707,14.702,46.033,14.806,46.456,14.806z"/>
		<path fill="#EF3A43" d="M58.323,8.976l-0.88-0.034c-0.4,0-0.735,0.084-1.004,0.254c-0.268,0.169-0.475,0.409-0.621,0.72v6.362
			h-2.057V7.124h1.879l0.135,1.328c0.231-0.469,0.529-0.835,0.894-1.101c0.363-0.265,0.783-0.397,1.256-0.397
			c0.124,0,0.24,0.01,0.347,0.029c0.107,0.021,0.207,0.044,0.297,0.072L58.323,8.976z"/>
	</g>
</g>
</svg>
